<svg xmlns="http://www.w3.org/2000/svg" width="25" height="24" viewBox="0 0 25 24" fill="none">
    <path d="M5.62608 9.43032C5.62608 9.49446 5.62608 9.5586 5.63636 9.62067C5.59153 9.91134 5.44553 10.1766 5.22438 10.3691C5.00323 10.5616 4.7213 10.6688 4.42885 10.6717H4.40417C4.0811 10.6685 3.77216 10.5379 3.5437 10.3082C3.31525 10.0784 3.18548 9.76768 3.18226 9.44274V9.41791C3.18015 9.02211 3.05737 8.63649 2.8305 8.31308C2.70235 8.12729 2.5421 7.96611 2.35737 7.83722C2.03624 7.60819 1.65256 7.48462 1.25889 7.48343H1.2342C0.991161 7.48097 0.754251 7.40639 0.553181 7.26905C0.352112 7.13171 0.195835 6.93772 0.103951 6.7114C0.0120675 6.48508 -0.0113312 6.23651 0.0366853 5.99687C0.0847018 5.75723 0.201996 5.53718 0.373862 5.36432C0.545727 5.19146 0.764514 5.07349 1.00278 5.0252C1.24104 4.9769 1.48818 5.00044 1.7132 5.09285C1.93822 5.18527 2.1311 5.34244 2.26765 5.54468C2.4042 5.74691 2.47835 5.98519 2.4808 6.22963V6.25446C2.4835 6.76668 2.68701 7.25714 3.04712 7.61934C3.40724 7.98154 3.89489 8.18623 4.40417 8.18895H4.42885C4.7213 8.19184 5.00323 8.2991 5.22438 8.49159C5.44553 8.68408 5.59153 8.9493 5.63636 9.23998C5.63019 9.30205 5.62608 9.37032 5.62608 9.43032Z" fill="#003b3d"/>
    <path d="M5.63635 6.05996C5.63635 6.12203 5.62607 6.18617 5.62607 6.2503C5.62607 6.31444 5.62607 6.37858 5.63635 6.44065C5.59114 6.7306 5.44525 6.99506 5.22457 7.1871C5.00389 7.37913 4.72269 7.48631 4.4309 7.48961H4.40004C4.07839 7.48533 3.77111 7.35491 3.54365 7.12613C3.31618 6.89735 3.18651 6.58829 3.18225 6.26478V6.23996C3.18544 5.92822 3.30514 5.6291 3.51755 5.40205C3.72996 5.175 4.01954 5.03665 4.32872 5.01449C4.6379 4.99234 4.94405 5.088 5.18632 5.28247C5.4286 5.47693 5.58925 5.75596 5.63635 6.06409V6.05996Z" fill="#003b3d"/>
    <path d="M11.9434 9.43041C11.9434 9.49454 11.9434 9.55868 11.9434 9.62075C11.8985 9.91177 11.7522 10.1773 11.5306 10.3698C11.309 10.5623 11.0266 10.6694 10.7338 10.6718H10.7091C10.3864 10.6686 10.0778 10.5383 9.84937 10.309C9.62097 10.0797 9.49096 9.76946 9.48721 9.44488V9.42006C9.48527 9.10998 9.40957 8.80487 9.26642 8.53024C9.12327 8.25561 8.91684 8.01942 8.66438 7.84144C8.34236 7.61421 7.95926 7.49083 7.5659 7.48764H7.53916C7.24701 7.48483 6.96533 7.37787 6.74422 7.18579C6.52312 6.99372 6.37692 6.72898 6.33165 6.43868C6.33165 6.37661 6.34194 6.31247 6.34194 6.24834C6.34194 6.1842 6.34194 6.12006 6.33165 6.05799C6.37881 5.7497 6.53962 5.47057 6.78211 5.27612C7.02459 5.08167 7.33097 4.98616 7.64029 5.00859C7.94961 5.03101 8.2392 5.16974 8.45145 5.39715C8.66369 5.62457 8.78304 5.92402 8.78575 6.23592V6.26075C8.78787 6.65655 8.91064 7.04217 9.13751 7.36558C9.26673 7.55106 9.42678 7.71274 9.61064 7.84351C9.93255 8.07071 10.3159 8.19345 10.7091 8.19523H10.7338C11.0266 8.19764 11.309 8.30467 11.5306 8.49721C11.7522 8.68974 11.8985 8.95524 11.9434 9.24627C11.9475 9.30213 11.9434 9.37041 11.9434 9.43041Z" fill="#003b3d"/>
    <path d="M11.9434 12.6186C11.9434 12.6828 11.9434 12.7469 11.9434 12.809C11.8985 13.1 11.7522 13.3655 11.5306 13.558C11.309 13.7506 11.0266 13.8576 10.7338 13.86H10.7091C10.3864 13.8568 10.0778 13.7266 9.84937 13.4972C9.62097 13.2679 9.49096 12.9577 9.48721 12.6331V12.6083C9.48345 12.097 9.27981 11.6076 8.92031 11.2461C8.56081 10.8845 8.0743 10.6797 7.5659 10.6759H7.53916C7.24701 10.6731 6.96533 10.5661 6.74422 10.374C6.52312 10.1819 6.37692 9.91721 6.33165 9.62691C6.33165 9.56484 6.34194 9.50071 6.34194 9.43657C6.34194 9.37243 6.34194 9.30829 6.33165 9.24622C6.37648 8.95554 6.52248 8.69032 6.74363 8.49783C6.96478 8.30534 7.24671 8.19809 7.53916 8.19519H7.5659C7.88826 8.19895 8.19637 8.32942 8.42433 8.5587C8.65229 8.78798 8.78201 9.09786 8.78575 9.42209V9.45105C8.78894 9.84604 8.91163 10.2307 9.13751 10.5538C9.26673 10.7393 9.42678 10.901 9.61064 11.0317C9.93243 11.2592 10.3158 11.3819 10.7091 11.3835H10.7379C11.03 11.3869 11.3115 11.4943 11.5322 11.6868C11.7529 11.8792 11.8986 12.1442 11.9434 12.4345C11.9475 12.4904 11.9434 12.5545 11.9434 12.6186Z" fill="#003b3d"/>
    <path d="M10.7318 7.48349C11.4134 7.48349 11.966 6.92771 11.966 6.24211C11.966 5.55652 11.4134 5.00073 10.7318 5.00073C10.0501 5.00073 9.49753 5.55652 9.49753 6.24211C9.49753 6.92771 10.0501 7.48349 10.7318 7.48349Z" fill="#003b3d"/>
    <path d="M13.8791 7.48349C14.5607 7.48349 15.1133 6.92771 15.1133 6.24211C15.1133 5.55652 14.5607 5.00073 13.8791 5.00073C13.1974 5.00073 12.6448 5.55652 12.6448 6.24211C12.6448 6.92771 13.1974 7.48349 13.8791 7.48349Z" fill="#003b3d"/>
    <path d="M13.8791 10.6717C14.5607 10.6717 15.1133 10.1159 15.1133 9.43034C15.1133 8.74475 14.5607 8.18896 13.8791 8.18896C13.1974 8.18896 12.6448 8.74475 12.6448 9.43034C12.6448 10.1159 13.1974 10.6717 13.8791 10.6717Z" fill="#003b3d"/>
    <path d="M5.62612 12.6186C5.62612 12.6828 5.62612 12.7469 5.63641 12.809C5.59158 13.0996 5.44558 13.3649 5.22443 13.5574C5.00328 13.7499 4.72135 13.8571 4.4289 13.86H4.40421C4.08114 13.8568 3.77221 13.7262 3.54375 13.4965C3.31529 13.2667 3.18552 12.956 3.18231 12.631V12.6062C3.18019 12.2104 3.05742 11.8248 2.83055 11.5014C2.70239 11.3156 2.54215 11.1544 2.35742 11.0255C2.03629 10.7965 1.65261 10.6729 1.25893 10.6717H1.23425C0.906906 10.6717 0.592969 10.5409 0.361502 10.3081C0.130036 10.0753 0 9.75958 0 9.43034C0 9.10111 0.130036 8.78536 0.361502 8.55256C0.592969 8.31975 0.906906 8.18896 1.23425 8.18896H1.26305C1.58541 8.19273 1.89352 8.3232 2.12148 8.55247C2.34944 8.78175 2.47916 9.09163 2.4829 9.41586V9.44482C2.48614 9.95633 2.6896 10.446 3.04922 10.8077C3.40883 11.1693 3.89565 11.374 4.40421 11.3772H4.43301C4.72511 11.3806 5.00654 11.4881 5.22727 11.6805C5.44799 11.873 5.59369 12.1379 5.63846 12.4283C5.63024 12.4903 5.62612 12.5545 5.62612 12.6186Z" fill="#003b3d"/>
    <path d="M5.63639 15.6166C5.63639 15.6786 5.6261 15.7428 5.6261 15.8069C5.6261 15.871 5.6261 15.9352 5.63639 15.9973C5.59596 16.257 5.47458 16.4971 5.28973 16.6831C5.10488 16.869 4.86612 16.9911 4.60785 17.0317C4.54613 17.0317 4.48236 17.0317 4.41859 17.0317C4.35482 17.0317 4.29105 17.0317 4.22934 17.0317C3.89033 17.0652 3.56607 17.1879 3.28926 17.3876C3.11274 17.5158 2.95845 17.6724 2.83258 17.851C2.60664 18.1756 2.48463 18.5618 2.48288 18.9579V18.9828C2.48009 19.2195 2.41005 19.4505 2.28101 19.6485C2.15198 19.8466 1.96933 20.0033 1.75461 20.1004C1.53989 20.1974 1.30206 20.2307 1.06916 20.1962C0.836265 20.1618 0.61802 20.0611 0.440163 19.906C0.262307 19.7509 0.132259 19.5479 0.0653583 19.3209C-0.00154186 19.0939 -0.00250476 18.8524 0.0625836 18.6248C0.127672 18.3973 0.256097 18.1932 0.432712 18.0367C0.609326 17.8802 0.826763 17.7777 1.05938 17.7414C1.12109 17.7414 1.18486 17.7414 1.24863 17.7414C1.3124 17.7414 1.37617 17.7414 1.43788 17.7414C1.71605 17.7132 1.98482 17.6246 2.22562 17.4817C2.46642 17.3388 2.67351 17.145 2.83258 16.9138C3.05945 16.5904 3.18223 16.2048 3.18434 15.809V15.7841C3.18754 15.4599 3.31674 15.1498 3.54432 14.9201C3.77189 14.6905 4.07978 14.5595 4.40214 14.5552H4.43299C4.72509 14.5586 5.00652 14.666 5.22725 14.8585C5.44797 15.0509 5.59367 15.3159 5.63844 15.6062L5.63639 15.6166Z" fill="#003b3d"/>
    <path d="M8.7961 12.6041V12.6331C8.79182 12.9569 8.66187 13.2663 8.43396 13.4951C8.20606 13.724 7.89826 13.8541 7.57624 13.8579H7.5495C7.25705 13.855 6.97513 13.7477 6.75398 13.5552C6.53283 13.3627 6.38683 13.0975 6.342 12.8068C6.342 12.7448 6.35228 12.6806 6.35228 12.6165C6.35228 12.5524 6.35228 12.4882 6.342 12.4262C6.38677 12.1358 6.53247 11.8709 6.75319 11.6784C6.97391 11.486 7.25535 11.3785 7.54745 11.3751H7.5783C7.90066 11.3794 8.20855 11.5104 8.43612 11.7401C8.6637 11.9697 8.7929 12.2799 8.7961 12.6041Z" fill="#003b3d"/>
    <path d="M15.1134 12.6186C15.1134 12.9457 14.9851 13.2595 14.7563 13.492C14.5275 13.7244 14.2167 13.8567 13.8915 13.86H13.8668C13.4735 13.8615 13.0901 13.9842 12.7684 14.2117C12.5896 14.3384 12.4331 14.4944 12.3055 14.6731C12.1071 14.9506 11.9857 15.2762 11.9537 15.6165C11.9537 15.6786 11.9537 15.7427 11.9537 15.8068C11.9537 15.871 11.9537 15.9351 11.9537 15.9972C11.9133 16.257 11.7919 16.4971 11.6071 16.683C11.4222 16.8689 11.1835 16.991 10.9252 17.0317C10.8614 17.0317 10.7997 17.0317 10.7339 17.0317C10.6681 17.0317 10.6084 17.0317 10.5446 17.0317C10.2556 16.9866 9.99194 16.8397 9.80055 16.6173C9.60917 16.3949 9.50253 16.1113 9.49965 15.8172V15.7924C9.50285 15.4678 9.63234 15.1574 9.86035 14.9276C10.0884 14.6979 10.3968 14.5672 10.7195 14.5634H10.7504C11.0552 14.5608 11.3552 14.4858 11.6258 14.3445C11.8964 14.2032 12.13 13.9996 12.3076 13.7503C12.506 13.4726 12.6281 13.1472 12.6614 12.8068C12.6614 12.7448 12.6614 12.6806 12.6614 12.6165C12.6614 12.5524 12.6614 12.4882 12.6614 12.4262C12.7062 12.1358 12.8519 11.8709 13.0726 11.6784C13.2933 11.486 13.5747 11.3785 13.8668 11.3751H13.8956C14.2205 11.3795 14.5305 11.5125 14.7585 11.7452C14.9865 11.978 15.114 12.2918 15.1134 12.6186Z" fill="#003b3d"/>
    <path d="M13.8791 17.0483C14.5607 17.0483 15.1133 16.4925 15.1133 15.8069C15.1133 15.1213 14.5607 14.5656 13.8791 14.5656C13.1974 14.5656 12.6448 15.1213 12.6448 15.8069C12.6448 16.4925 13.1974 17.0483 13.8791 17.0483Z" fill="#003b3d"/>
    <path d="M11.9434 18.9725C11.9434 19.0366 11.9434 19.1007 11.9434 19.1628C11.8994 19.4739 11.7396 19.7567 11.4963 19.954C11.2531 20.1513 10.9445 20.2485 10.6329 20.2259C10.3212 20.2033 10.0296 20.0627 9.81701 19.8323C9.6044 19.602 9.48656 19.2991 9.48728 18.9849V18.96C9.48552 18.5639 9.36351 18.1777 9.13757 17.8531C9.0117 17.6745 8.85741 17.5179 8.6809 17.3897C8.40467 17.1904 8.08117 17.0676 7.74287 17.0338C7.6791 17.0338 7.61739 17.0338 7.55156 17.0338C7.48574 17.0338 7.42608 17.0338 7.36231 17.0338C7.10404 16.9932 6.86527 16.8711 6.68043 16.6852C6.49558 16.4993 6.3742 16.2591 6.33377 15.9993C6.33377 15.9373 6.34405 15.8731 6.34405 15.809C6.34405 15.7449 6.34406 15.6807 6.33377 15.6187C6.37854 15.3283 6.52424 15.0634 6.74497 14.8709C6.96569 14.6785 7.24713 14.571 7.53922 14.5676H7.57008C7.89208 14.5719 8.19967 14.7026 8.42719 14.9319C8.65471 15.1611 8.78414 15.4707 8.78787 15.7945V15.8235C8.79067 16.2185 8.9134 16.6033 9.13963 16.9263C9.29871 17.1575 9.50579 17.3512 9.74659 17.4941C9.98739 17.637 10.2562 17.7256 10.5343 17.7538C10.5981 17.7538 10.6598 17.7538 10.7236 17.7538C10.7874 17.7538 10.8511 17.7538 10.9149 17.7538C11.1732 17.7945 11.4119 17.9166 11.5968 18.1025C11.7816 18.2884 11.903 18.5286 11.9434 18.7883C11.9475 18.8442 11.9434 18.9083 11.9434 18.9725Z" fill="#003b3d"/>
    <path d="M13.8791 20.2138C14.5607 20.2138 15.1133 19.6581 15.1133 18.9725C15.1133 18.2869 14.5607 17.7311 13.8791 17.7311C13.1974 17.7311 12.6448 18.2869 12.6448 18.9725C12.6448 19.6581 13.1974 20.2138 13.8791 20.2138Z" fill="#003b3d"/>
</svg>